G04 #@! TF.GenerationSoftware,KiCad,Pcbnew,(6.0.1)*
G04 #@! TF.CreationDate,2022-12-28T01:32:54+09:00*
G04 #@! TF.ProjectId,PR2040_BASESYSTEM,50523230-3430-45f4-9241-534553595354,REV 1.4.0*
G04 #@! TF.SameCoordinates,PX4e33880PY8f0d180*
G04 #@! TF.FileFunction,Legend,Bot*
G04 #@! TF.FilePolarity,Positive*
%FSLAX46Y46*%
G04 Gerber Fmt 4.6, Leading zero omitted, Abs format (unit mm)*
G04 Created by KiCad (PCBNEW (6.0.1)) date 2022-12-28 01:32:54*
%MOMM*%
%LPD*%
G01*
G04 APERTURE LIST*
%ADD10C,0.150000*%
%ADD11C,0.120000*%
G04 APERTURE END LIST*
D10*
X32155657Y49512620D02*
X32488990Y49988810D01*
X32727085Y49512620D02*
X32727085Y50512620D01*
X32346133Y50512620D01*
X32250895Y50465000D01*
X32203276Y50417381D01*
X32155657Y50322143D01*
X32155657Y50179286D01*
X32203276Y50084048D01*
X32250895Y50036429D01*
X32346133Y49988810D01*
X32727085Y49988810D01*
X31298514Y50512620D02*
X31488990Y50512620D01*
X31584228Y50465000D01*
X31631847Y50417381D01*
X31727085Y50274524D01*
X31774704Y50084048D01*
X31774704Y49703096D01*
X31727085Y49607858D01*
X31679466Y49560239D01*
X31584228Y49512620D01*
X31393752Y49512620D01*
X31298514Y49560239D01*
X31250895Y49607858D01*
X31203276Y49703096D01*
X31203276Y49941191D01*
X31250895Y50036429D01*
X31298514Y50084048D01*
X31393752Y50131667D01*
X31584228Y50131667D01*
X31679466Y50084048D01*
X31727085Y50036429D01*
X31774704Y49941191D01*
X30727085Y49512620D02*
X30536609Y49512620D01*
X30441371Y49560239D01*
X30393752Y49607858D01*
X30298514Y49750715D01*
X30250895Y49941191D01*
X30250895Y50322143D01*
X30298514Y50417381D01*
X30346133Y50465000D01*
X30441371Y50512620D01*
X30631847Y50512620D01*
X30727085Y50465000D01*
X30774704Y50417381D01*
X30822323Y50322143D01*
X30822323Y50084048D01*
X30774704Y49988810D01*
X30727085Y49941191D01*
X30631847Y49893572D01*
X30441371Y49893572D01*
X30346133Y49941191D01*
X30298514Y49988810D01*
X30250895Y50084048D01*
X32155657Y52560620D02*
X32488990Y53036810D01*
X32727085Y52560620D02*
X32727085Y53560620D01*
X32346133Y53560620D01*
X32250895Y53513000D01*
X32203276Y53465381D01*
X32155657Y53370143D01*
X32155657Y53227286D01*
X32203276Y53132048D01*
X32250895Y53084429D01*
X32346133Y53036810D01*
X32727085Y53036810D01*
X31774704Y53465381D02*
X31727085Y53513000D01*
X31631847Y53560620D01*
X31393752Y53560620D01*
X31298514Y53513000D01*
X31250895Y53465381D01*
X31203276Y53370143D01*
X31203276Y53274905D01*
X31250895Y53132048D01*
X31822323Y52560620D01*
X31203276Y52560620D01*
X30869942Y53560620D02*
X30203276Y53560620D01*
X30631847Y52560620D01*
X32155657Y57132620D02*
X32488990Y57608810D01*
X32727085Y57132620D02*
X32727085Y58132620D01*
X32346133Y58132620D01*
X32250895Y58085000D01*
X32203276Y58037381D01*
X32155657Y57942143D01*
X32155657Y57799286D01*
X32203276Y57704048D01*
X32250895Y57656429D01*
X32346133Y57608810D01*
X32727085Y57608810D01*
X31298514Y57799286D02*
X31298514Y57132620D01*
X31536609Y58180239D02*
X31774704Y57465953D01*
X31155657Y57465953D01*
X30869942Y58132620D02*
X30250895Y58132620D01*
X30584228Y57751667D01*
X30441371Y57751667D01*
X30346133Y57704048D01*
X30298514Y57656429D01*
X30250895Y57561191D01*
X30250895Y57323096D01*
X30298514Y57227858D01*
X30346133Y57180239D01*
X30441371Y57132620D01*
X30727085Y57132620D01*
X30822323Y57180239D01*
X30869942Y57227858D01*
X30516714Y17340315D02*
X30545285Y17311743D01*
X30631000Y17283172D01*
X30688142Y17283172D01*
X30773857Y17311743D01*
X30831000Y17368886D01*
X30859571Y17426029D01*
X30888142Y17540315D01*
X30888142Y17626029D01*
X30859571Y17740315D01*
X30831000Y17797458D01*
X30773857Y17854600D01*
X30688142Y17883172D01*
X30631000Y17883172D01*
X30545285Y17854600D01*
X30516714Y17826029D01*
X29973857Y17883172D02*
X30259571Y17883172D01*
X30288142Y17597458D01*
X30259571Y17626029D01*
X30202428Y17654600D01*
X30059571Y17654600D01*
X30002428Y17626029D01*
X29973857Y17597458D01*
X29945285Y17540315D01*
X29945285Y17397458D01*
X29973857Y17340315D01*
X30002428Y17311743D01*
X30059571Y17283172D01*
X30202428Y17283172D01*
X30259571Y17311743D01*
X30288142Y17340315D01*
X29431000Y17683172D02*
X29431000Y17283172D01*
X29573857Y17911743D02*
X29716714Y17483172D01*
X29345285Y17483172D01*
X44878428Y40343115D02*
X44592714Y40543115D01*
X44878428Y40685972D02*
X44278428Y40685972D01*
X44278428Y40457400D01*
X44307000Y40400258D01*
X44335571Y40371686D01*
X44392714Y40343115D01*
X44478428Y40343115D01*
X44535571Y40371686D01*
X44564142Y40400258D01*
X44592714Y40457400D01*
X44592714Y40685972D01*
X44278428Y39800258D02*
X44278428Y40085972D01*
X44564142Y40114543D01*
X44535571Y40085972D01*
X44507000Y40028829D01*
X44507000Y39885972D01*
X44535571Y39828829D01*
X44564142Y39800258D01*
X44621285Y39771686D01*
X44764142Y39771686D01*
X44821285Y39800258D01*
X44849857Y39828829D01*
X44878428Y39885972D01*
X44878428Y40028829D01*
X44849857Y40085972D01*
X44821285Y40114543D01*
X44478428Y39257400D02*
X44878428Y39257400D01*
X44249857Y39400258D02*
X44678428Y39543115D01*
X44678428Y39171686D01*
X38311514Y60615572D02*
X38511514Y60901286D01*
X38654371Y60615572D02*
X38654371Y61215572D01*
X38425800Y61215572D01*
X38368657Y61187000D01*
X38340085Y61158429D01*
X38311514Y61101286D01*
X38311514Y61015572D01*
X38340085Y60958429D01*
X38368657Y60929858D01*
X38425800Y60901286D01*
X38654371Y60901286D01*
X37797228Y61215572D02*
X37911514Y61215572D01*
X37968657Y61187000D01*
X37997228Y61158429D01*
X38054371Y61072715D01*
X38082942Y60958429D01*
X38082942Y60729858D01*
X38054371Y60672715D01*
X38025800Y60644143D01*
X37968657Y60615572D01*
X37854371Y60615572D01*
X37797228Y60644143D01*
X37768657Y60672715D01*
X37740085Y60729858D01*
X37740085Y60872715D01*
X37768657Y60929858D01*
X37797228Y60958429D01*
X37854371Y60987000D01*
X37968657Y60987000D01*
X38025800Y60958429D01*
X38054371Y60929858D01*
X38082942Y60872715D01*
X37397228Y60958429D02*
X37454371Y60987000D01*
X37482942Y61015572D01*
X37511514Y61072715D01*
X37511514Y61101286D01*
X37482942Y61158429D01*
X37454371Y61187000D01*
X37397228Y61215572D01*
X37282942Y61215572D01*
X37225800Y61187000D01*
X37197228Y61158429D01*
X37168657Y61101286D01*
X37168657Y61072715D01*
X37197228Y61015572D01*
X37225800Y60987000D01*
X37282942Y60958429D01*
X37397228Y60958429D01*
X37454371Y60929858D01*
X37482942Y60901286D01*
X37511514Y60844143D01*
X37511514Y60729858D01*
X37482942Y60672715D01*
X37454371Y60644143D01*
X37397228Y60615572D01*
X37282942Y60615572D01*
X37225800Y60644143D01*
X37197228Y60672715D01*
X37168657Y60729858D01*
X37168657Y60844143D01*
X37197228Y60901286D01*
X37225800Y60929858D01*
X37282942Y60958429D01*
X40814428Y55887915D02*
X40528714Y56087915D01*
X40814428Y56230772D02*
X40214428Y56230772D01*
X40214428Y56002200D01*
X40243000Y55945058D01*
X40271571Y55916486D01*
X40328714Y55887915D01*
X40414428Y55887915D01*
X40471571Y55916486D01*
X40500142Y55945058D01*
X40528714Y56002200D01*
X40528714Y56230772D01*
X40214428Y55345058D02*
X40214428Y55630772D01*
X40500142Y55659343D01*
X40471571Y55630772D01*
X40443000Y55573629D01*
X40443000Y55430772D01*
X40471571Y55373629D01*
X40500142Y55345058D01*
X40557285Y55316486D01*
X40700142Y55316486D01*
X40757285Y55345058D01*
X40785857Y55373629D01*
X40814428Y55430772D01*
X40814428Y55573629D01*
X40785857Y55630772D01*
X40757285Y55659343D01*
X40214428Y54945058D02*
X40214428Y54887915D01*
X40243000Y54830772D01*
X40271571Y54802200D01*
X40328714Y54773629D01*
X40443000Y54745058D01*
X40585857Y54745058D01*
X40700142Y54773629D01*
X40757285Y54802200D01*
X40785857Y54830772D01*
X40814428Y54887915D01*
X40814428Y54945058D01*
X40785857Y55002200D01*
X40757285Y55030772D01*
X40700142Y55059343D01*
X40585857Y55087915D01*
X40443000Y55087915D01*
X40328714Y55059343D01*
X40271571Y55030772D01*
X40243000Y55002200D01*
X40214428Y54945058D01*
X12858180Y31118058D02*
X11858180Y31118058D01*
X12858180Y30546629D01*
X11858180Y30546629D01*
X11858180Y30213296D02*
X11858180Y29641867D01*
X12858180Y29927581D02*
X11858180Y29927581D01*
X12858180Y28784724D02*
X12858180Y29356153D01*
X12858180Y29070439D02*
X11858180Y29070439D01*
X12001038Y29165677D01*
X12096276Y29260915D01*
X12143895Y29356153D01*
X4701485Y36380715D02*
X4730057Y36409286D01*
X4758628Y36495000D01*
X4758628Y36552143D01*
X4730057Y36637858D01*
X4672914Y36695000D01*
X4615771Y36723572D01*
X4501485Y36752143D01*
X4415771Y36752143D01*
X4301485Y36723572D01*
X4244342Y36695000D01*
X4187200Y36637858D01*
X4158628Y36552143D01*
X4158628Y36495000D01*
X4187200Y36409286D01*
X4215771Y36380715D01*
X4158628Y36180715D02*
X4158628Y35809286D01*
X4387200Y36009286D01*
X4387200Y35923572D01*
X4415771Y35866429D01*
X4444342Y35837858D01*
X4501485Y35809286D01*
X4644342Y35809286D01*
X4701485Y35837858D01*
X4730057Y35866429D01*
X4758628Y35923572D01*
X4758628Y36095000D01*
X4730057Y36152143D01*
X4701485Y36180715D01*
X4215771Y35580715D02*
X4187200Y35552143D01*
X4158628Y35495000D01*
X4158628Y35352143D01*
X4187200Y35295000D01*
X4215771Y35266429D01*
X4272914Y35237858D01*
X4330057Y35237858D01*
X4415771Y35266429D01*
X4758628Y35609286D01*
X4758628Y35237858D01*
X49710285Y41460715D02*
X49738857Y41489286D01*
X49767428Y41575000D01*
X49767428Y41632143D01*
X49738857Y41717858D01*
X49681714Y41775000D01*
X49624571Y41803572D01*
X49510285Y41832143D01*
X49424571Y41832143D01*
X49310285Y41803572D01*
X49253142Y41775000D01*
X49196000Y41717858D01*
X49167428Y41632143D01*
X49167428Y41575000D01*
X49196000Y41489286D01*
X49224571Y41460715D01*
X49167428Y40946429D02*
X49167428Y41060715D01*
X49196000Y41117858D01*
X49224571Y41146429D01*
X49310285Y41203572D01*
X49424571Y41232143D01*
X49653142Y41232143D01*
X49710285Y41203572D01*
X49738857Y41175000D01*
X49767428Y41117858D01*
X49767428Y41003572D01*
X49738857Y40946429D01*
X49710285Y40917858D01*
X49653142Y40889286D01*
X49510285Y40889286D01*
X49453142Y40917858D01*
X49424571Y40946429D01*
X49396000Y41003572D01*
X49396000Y41117858D01*
X49424571Y41175000D01*
X49453142Y41203572D01*
X49510285Y41232143D01*
X49167428Y40375000D02*
X49167428Y40489286D01*
X49196000Y40546429D01*
X49224571Y40575000D01*
X49310285Y40632143D01*
X49424571Y40660715D01*
X49653142Y40660715D01*
X49710285Y40632143D01*
X49738857Y40603572D01*
X49767428Y40546429D01*
X49767428Y40432143D01*
X49738857Y40375000D01*
X49710285Y40346429D01*
X49653142Y40317858D01*
X49510285Y40317858D01*
X49453142Y40346429D01*
X49424571Y40375000D01*
X49396000Y40432143D01*
X49396000Y40546429D01*
X49424571Y40603572D01*
X49453142Y40632143D01*
X49510285Y40660715D01*
X22811685Y11031515D02*
X22840257Y11060086D01*
X22868828Y11145800D01*
X22868828Y11202943D01*
X22840257Y11288658D01*
X22783114Y11345800D01*
X22725971Y11374372D01*
X22611685Y11402943D01*
X22525971Y11402943D01*
X22411685Y11374372D01*
X22354542Y11345800D01*
X22297400Y11288658D01*
X22268828Y11202943D01*
X22268828Y11145800D01*
X22297400Y11060086D01*
X22325971Y11031515D01*
X22468828Y10517229D02*
X22868828Y10517229D01*
X22240257Y10660086D02*
X22668828Y10802943D01*
X22668828Y10431515D01*
X22868828Y9888658D02*
X22868828Y10231515D01*
X22868828Y10060086D02*
X22268828Y10060086D01*
X22354542Y10117229D01*
X22411685Y10174372D01*
X22440257Y10231515D01*
X4707828Y38514315D02*
X4422114Y38714315D01*
X4707828Y38857172D02*
X4107828Y38857172D01*
X4107828Y38628600D01*
X4136400Y38571458D01*
X4164971Y38542886D01*
X4222114Y38514315D01*
X4307828Y38514315D01*
X4364971Y38542886D01*
X4393542Y38571458D01*
X4422114Y38628600D01*
X4422114Y38857172D01*
X4107828Y38314315D02*
X4107828Y37914315D01*
X4707828Y38171458D01*
X4107828Y37428600D02*
X4107828Y37542886D01*
X4136400Y37600029D01*
X4164971Y37628600D01*
X4250685Y37685743D01*
X4364971Y37714315D01*
X4593542Y37714315D01*
X4650685Y37685743D01*
X4679257Y37657172D01*
X4707828Y37600029D01*
X4707828Y37485743D01*
X4679257Y37428600D01*
X4650685Y37400029D01*
X4593542Y37371458D01*
X4450685Y37371458D01*
X4393542Y37400029D01*
X4364971Y37428600D01*
X4336400Y37485743D01*
X4336400Y37600029D01*
X4364971Y37657172D01*
X4393542Y37685743D01*
X4450685Y37714315D01*
X20620914Y27855915D02*
X20649485Y27827343D01*
X20735200Y27798772D01*
X20792342Y27798772D01*
X20878057Y27827343D01*
X20935200Y27884486D01*
X20963771Y27941629D01*
X20992342Y28055915D01*
X20992342Y28141629D01*
X20963771Y28255915D01*
X20935200Y28313058D01*
X20878057Y28370200D01*
X20792342Y28398772D01*
X20735200Y28398772D01*
X20649485Y28370200D01*
X20620914Y28341629D01*
X20078057Y28398772D02*
X20363771Y28398772D01*
X20392342Y28113058D01*
X20363771Y28141629D01*
X20306628Y28170200D01*
X20163771Y28170200D01*
X20106628Y28141629D01*
X20078057Y28113058D01*
X20049485Y28055915D01*
X20049485Y27913058D01*
X20078057Y27855915D01*
X20106628Y27827343D01*
X20163771Y27798772D01*
X20306628Y27798772D01*
X20363771Y27827343D01*
X20392342Y27855915D01*
X19849485Y28398772D02*
X19478057Y28398772D01*
X19678057Y28170200D01*
X19592342Y28170200D01*
X19535200Y28141629D01*
X19506628Y28113058D01*
X19478057Y28055915D01*
X19478057Y27913058D01*
X19506628Y27855915D01*
X19535200Y27827343D01*
X19592342Y27798772D01*
X19763771Y27798772D01*
X19820914Y27827343D01*
X19849485Y27855915D01*
X17575619Y72269477D02*
X16861333Y72269477D01*
X16718476Y72221858D01*
X16623238Y72126620D01*
X16575619Y71983762D01*
X16575619Y71888524D01*
X16575619Y73269477D02*
X16575619Y72698048D01*
X16575619Y72983762D02*
X17575619Y72983762D01*
X17432761Y72888524D01*
X17337523Y72793286D01*
X17289904Y72698048D01*
X17575619Y74126620D02*
X17575619Y73936143D01*
X17528000Y73840905D01*
X17480380Y73793286D01*
X17337523Y73698048D01*
X17147047Y73650429D01*
X16766095Y73650429D01*
X16670857Y73698048D01*
X16623238Y73745667D01*
X16575619Y73840905D01*
X16575619Y74031381D01*
X16623238Y74126620D01*
X16670857Y74174239D01*
X16766095Y74221858D01*
X17004190Y74221858D01*
X17099428Y74174239D01*
X17147047Y74126620D01*
X17194666Y74031381D01*
X17194666Y73840905D01*
X17147047Y73745667D01*
X17099428Y73698048D01*
X17004190Y73650429D01*
X32155657Y47988620D02*
X32488990Y48464810D01*
X32727085Y47988620D02*
X32727085Y48988620D01*
X32346133Y48988620D01*
X32250895Y48941000D01*
X32203276Y48893381D01*
X32155657Y48798143D01*
X32155657Y48655286D01*
X32203276Y48560048D01*
X32250895Y48512429D01*
X32346133Y48464810D01*
X32727085Y48464810D01*
X31298514Y48655286D02*
X31298514Y47988620D01*
X31536609Y49036239D02*
X31774704Y48321953D01*
X31155657Y48321953D01*
X30346133Y48655286D02*
X30346133Y47988620D01*
X30584228Y49036239D02*
X30822323Y48321953D01*
X30203276Y48321953D01*
X38353257Y47550458D02*
X38400876Y47502839D01*
X38543733Y47455220D01*
X38638971Y47455220D01*
X38781828Y47502839D01*
X38877066Y47598077D01*
X38924685Y47693315D01*
X38972304Y47883791D01*
X38972304Y48026648D01*
X38924685Y48217124D01*
X38877066Y48312362D01*
X38781828Y48407600D01*
X38638971Y48455220D01*
X38543733Y48455220D01*
X38400876Y48407600D01*
X38353257Y48359981D01*
X37496114Y48455220D02*
X37686590Y48455220D01*
X37781828Y48407600D01*
X37829447Y48359981D01*
X37924685Y48217124D01*
X37972304Y48026648D01*
X37972304Y47645696D01*
X37924685Y47550458D01*
X37877066Y47502839D01*
X37781828Y47455220D01*
X37591352Y47455220D01*
X37496114Y47502839D01*
X37448495Y47550458D01*
X37400876Y47645696D01*
X37400876Y47883791D01*
X37448495Y47979029D01*
X37496114Y48026648D01*
X37591352Y48074267D01*
X37781828Y48074267D01*
X37877066Y48026648D01*
X37924685Y47979029D01*
X37972304Y47883791D01*
X37067542Y48455220D02*
X36400876Y48455220D01*
X36829447Y47455220D01*
X31615942Y29094058D02*
X31663561Y29141677D01*
X31711180Y29284534D01*
X31711180Y29379772D01*
X31663561Y29522629D01*
X31568323Y29617867D01*
X31473085Y29665486D01*
X31282609Y29713105D01*
X31139752Y29713105D01*
X30949276Y29665486D01*
X30854038Y29617867D01*
X30758800Y29522629D01*
X30711180Y29379772D01*
X30711180Y29284534D01*
X30758800Y29141677D01*
X30806419Y29094058D01*
X30711180Y28189296D02*
X30711180Y28665486D01*
X31187371Y28713105D01*
X31139752Y28665486D01*
X31092133Y28570248D01*
X31092133Y28332153D01*
X31139752Y28236915D01*
X31187371Y28189296D01*
X31282609Y28141677D01*
X31520704Y28141677D01*
X31615942Y28189296D01*
X31663561Y28236915D01*
X31711180Y28332153D01*
X31711180Y28570248D01*
X31663561Y28665486D01*
X31615942Y28713105D01*
X31139752Y27570248D02*
X31092133Y27665486D01*
X31044514Y27713105D01*
X30949276Y27760724D01*
X30901657Y27760724D01*
X30806419Y27713105D01*
X30758800Y27665486D01*
X30711180Y27570248D01*
X30711180Y27379772D01*
X30758800Y27284534D01*
X30806419Y27236915D01*
X30901657Y27189296D01*
X30949276Y27189296D01*
X31044514Y27236915D01*
X31092133Y27284534D01*
X31139752Y27379772D01*
X31139752Y27570248D01*
X31187371Y27665486D01*
X31234990Y27713105D01*
X31330228Y27760724D01*
X31520704Y27760724D01*
X31615942Y27713105D01*
X31663561Y27665486D01*
X31711180Y27570248D01*
X31711180Y27379772D01*
X31663561Y27284534D01*
X31615942Y27236915D01*
X31520704Y27189296D01*
X31330228Y27189296D01*
X31234990Y27236915D01*
X31187371Y27284534D01*
X31139752Y27379772D01*
X21062685Y13774715D02*
X21091257Y13803286D01*
X21119828Y13889000D01*
X21119828Y13946143D01*
X21091257Y14031858D01*
X21034114Y14089000D01*
X20976971Y14117572D01*
X20862685Y14146143D01*
X20776971Y14146143D01*
X20662685Y14117572D01*
X20605542Y14089000D01*
X20548400Y14031858D01*
X20519828Y13946143D01*
X20519828Y13889000D01*
X20548400Y13803286D01*
X20576971Y13774715D01*
X20719828Y13260429D02*
X21119828Y13260429D01*
X20491257Y13403286D02*
X20919828Y13546143D01*
X20919828Y13174715D01*
X20519828Y13003286D02*
X20519828Y12631858D01*
X20748400Y12831858D01*
X20748400Y12746143D01*
X20776971Y12689000D01*
X20805542Y12660429D01*
X20862685Y12631858D01*
X21005542Y12631858D01*
X21062685Y12660429D01*
X21091257Y12689000D01*
X21119828Y12746143D01*
X21119828Y12917572D01*
X21091257Y12974715D01*
X21062685Y13003286D01*
X29441085Y28328915D02*
X29469657Y28357486D01*
X29498228Y28443200D01*
X29498228Y28500343D01*
X29469657Y28586058D01*
X29412514Y28643200D01*
X29355371Y28671772D01*
X29241085Y28700343D01*
X29155371Y28700343D01*
X29041085Y28671772D01*
X28983942Y28643200D01*
X28926800Y28586058D01*
X28898228Y28500343D01*
X28898228Y28443200D01*
X28926800Y28357486D01*
X28955371Y28328915D01*
X28898228Y27786058D02*
X28898228Y28071772D01*
X29183942Y28100343D01*
X29155371Y28071772D01*
X29126800Y28014629D01*
X29126800Y27871772D01*
X29155371Y27814629D01*
X29183942Y27786058D01*
X29241085Y27757486D01*
X29383942Y27757486D01*
X29441085Y27786058D01*
X29469657Y27814629D01*
X29498228Y27871772D01*
X29498228Y28014629D01*
X29469657Y28071772D01*
X29441085Y28100343D01*
X28898228Y27557486D02*
X28898228Y27157486D01*
X29498228Y27414629D01*
X47243257Y47423458D02*
X47290876Y47375839D01*
X47433733Y47328220D01*
X47528971Y47328220D01*
X47671828Y47375839D01*
X47767066Y47471077D01*
X47814685Y47566315D01*
X47862304Y47756791D01*
X47862304Y47899648D01*
X47814685Y48090124D01*
X47767066Y48185362D01*
X47671828Y48280600D01*
X47528971Y48328220D01*
X47433733Y48328220D01*
X47290876Y48280600D01*
X47243257Y48232981D01*
X46386114Y48328220D02*
X46576590Y48328220D01*
X46671828Y48280600D01*
X46719447Y48232981D01*
X46814685Y48090124D01*
X46862304Y47899648D01*
X46862304Y47518696D01*
X46814685Y47423458D01*
X46767066Y47375839D01*
X46671828Y47328220D01*
X46481352Y47328220D01*
X46386114Y47375839D01*
X46338495Y47423458D01*
X46290876Y47518696D01*
X46290876Y47756791D01*
X46338495Y47852029D01*
X46386114Y47899648D01*
X46481352Y47947267D01*
X46671828Y47947267D01*
X46767066Y47899648D01*
X46814685Y47852029D01*
X46862304Y47756791D01*
X45433733Y47994886D02*
X45433733Y47328220D01*
X45671828Y48375839D02*
X45909923Y47661553D01*
X45290876Y47661553D01*
X28119333Y34329420D02*
X28119333Y33615134D01*
X28166952Y33472277D01*
X28262190Y33377039D01*
X28405047Y33329420D01*
X28500285Y33329420D01*
X27643142Y33329420D02*
X27643142Y34329420D01*
X27262190Y34329420D01*
X27166952Y34281800D01*
X27119333Y34234181D01*
X27071714Y34138943D01*
X27071714Y33996086D01*
X27119333Y33900848D01*
X27166952Y33853229D01*
X27262190Y33805610D01*
X27643142Y33805610D01*
X26119333Y33329420D02*
X26690761Y33329420D01*
X26405047Y33329420D02*
X26405047Y34329420D01*
X26500285Y34186562D01*
X26595523Y34091324D01*
X26690761Y34043705D01*
X44878428Y43441915D02*
X44592714Y43641915D01*
X44878428Y43784772D02*
X44278428Y43784772D01*
X44278428Y43556200D01*
X44307000Y43499058D01*
X44335571Y43470486D01*
X44392714Y43441915D01*
X44478428Y43441915D01*
X44535571Y43470486D01*
X44564142Y43499058D01*
X44592714Y43556200D01*
X44592714Y43784772D01*
X44278428Y42899058D02*
X44278428Y43184772D01*
X44564142Y43213343D01*
X44535571Y43184772D01*
X44507000Y43127629D01*
X44507000Y42984772D01*
X44535571Y42927629D01*
X44564142Y42899058D01*
X44621285Y42870486D01*
X44764142Y42870486D01*
X44821285Y42899058D01*
X44849857Y42927629D01*
X44878428Y42984772D01*
X44878428Y43127629D01*
X44849857Y43184772D01*
X44821285Y43213343D01*
X44878428Y42299058D02*
X44878428Y42641915D01*
X44878428Y42470486D02*
X44278428Y42470486D01*
X44364142Y42527629D01*
X44421285Y42584772D01*
X44449857Y42641915D01*
X32155657Y41892620D02*
X32488990Y42368810D01*
X32727085Y41892620D02*
X32727085Y42892620D01*
X32346133Y42892620D01*
X32250895Y42845000D01*
X32203276Y42797381D01*
X32155657Y42702143D01*
X32155657Y42559286D01*
X32203276Y42464048D01*
X32250895Y42416429D01*
X32346133Y42368810D01*
X32727085Y42368810D01*
X31250895Y42892620D02*
X31727085Y42892620D01*
X31774704Y42416429D01*
X31727085Y42464048D01*
X31631847Y42511667D01*
X31393752Y42511667D01*
X31298514Y42464048D01*
X31250895Y42416429D01*
X31203276Y42321191D01*
X31203276Y42083096D01*
X31250895Y41987858D01*
X31298514Y41940239D01*
X31393752Y41892620D01*
X31631847Y41892620D01*
X31727085Y41940239D01*
X31774704Y41987858D01*
X30869942Y42892620D02*
X30203276Y42892620D01*
X30631847Y41892620D01*
X40280514Y29967715D02*
X40309085Y29939143D01*
X40394800Y29910572D01*
X40451942Y29910572D01*
X40537657Y29939143D01*
X40594800Y29996286D01*
X40623371Y30053429D01*
X40651942Y30167715D01*
X40651942Y30253429D01*
X40623371Y30367715D01*
X40594800Y30424858D01*
X40537657Y30482000D01*
X40451942Y30510572D01*
X40394800Y30510572D01*
X40309085Y30482000D01*
X40280514Y30453429D01*
X39766228Y30510572D02*
X39880514Y30510572D01*
X39937657Y30482000D01*
X39966228Y30453429D01*
X40023371Y30367715D01*
X40051942Y30253429D01*
X40051942Y30024858D01*
X40023371Y29967715D01*
X39994800Y29939143D01*
X39937657Y29910572D01*
X39823371Y29910572D01*
X39766228Y29939143D01*
X39737657Y29967715D01*
X39709085Y30024858D01*
X39709085Y30167715D01*
X39737657Y30224858D01*
X39766228Y30253429D01*
X39823371Y30282000D01*
X39937657Y30282000D01*
X39994800Y30253429D01*
X40023371Y30224858D01*
X40051942Y30167715D01*
X39509085Y30510572D02*
X39137657Y30510572D01*
X39337657Y30282000D01*
X39251942Y30282000D01*
X39194800Y30253429D01*
X39166228Y30224858D01*
X39137657Y30167715D01*
X39137657Y30024858D01*
X39166228Y29967715D01*
X39194800Y29939143D01*
X39251942Y29910572D01*
X39423371Y29910572D01*
X39480514Y29939143D01*
X39509085Y29967715D01*
X40814428Y41867115D02*
X40528714Y42067115D01*
X40814428Y42209972D02*
X40214428Y42209972D01*
X40214428Y41981400D01*
X40243000Y41924258D01*
X40271571Y41895686D01*
X40328714Y41867115D01*
X40414428Y41867115D01*
X40471571Y41895686D01*
X40500142Y41924258D01*
X40528714Y41981400D01*
X40528714Y42209972D01*
X40271571Y41638543D02*
X40243000Y41609972D01*
X40214428Y41552829D01*
X40214428Y41409972D01*
X40243000Y41352829D01*
X40271571Y41324258D01*
X40328714Y41295686D01*
X40385857Y41295686D01*
X40471571Y41324258D01*
X40814428Y41667115D01*
X40814428Y41295686D01*
X40414428Y40781400D02*
X40814428Y40781400D01*
X40185857Y40924258D02*
X40614428Y41067115D01*
X40614428Y40695686D01*
X2655123Y48727820D02*
X2655123Y48013534D01*
X2702742Y47870677D01*
X2797980Y47775439D01*
X2940838Y47727820D01*
X3036076Y47727820D01*
X1655123Y47727820D02*
X2226552Y47727820D01*
X1940838Y47727820D02*
X1940838Y48727820D01*
X2036076Y48584962D01*
X2131314Y48489724D01*
X2226552Y48442105D01*
X1274171Y48632581D02*
X1226552Y48680200D01*
X1131314Y48727820D01*
X893219Y48727820D01*
X797980Y48680200D01*
X750361Y48632581D01*
X702742Y48537343D01*
X702742Y48442105D01*
X750361Y48299248D01*
X1321790Y47727820D01*
X702742Y47727820D01*
X32155657Y46464620D02*
X32488990Y46940810D01*
X32727085Y46464620D02*
X32727085Y47464620D01*
X32346133Y47464620D01*
X32250895Y47417000D01*
X32203276Y47369381D01*
X32155657Y47274143D01*
X32155657Y47131286D01*
X32203276Y47036048D01*
X32250895Y46988429D01*
X32346133Y46940810D01*
X32727085Y46940810D01*
X31298514Y47131286D02*
X31298514Y46464620D01*
X31536609Y47512239D02*
X31774704Y46797953D01*
X31155657Y46797953D01*
X30631847Y47036048D02*
X30727085Y47083667D01*
X30774704Y47131286D01*
X30822323Y47226524D01*
X30822323Y47274143D01*
X30774704Y47369381D01*
X30727085Y47417000D01*
X30631847Y47464620D01*
X30441371Y47464620D01*
X30346133Y47417000D01*
X30298514Y47369381D01*
X30250895Y47274143D01*
X30250895Y47226524D01*
X30298514Y47131286D01*
X30346133Y47083667D01*
X30441371Y47036048D01*
X30631847Y47036048D01*
X30727085Y46988429D01*
X30774704Y46940810D01*
X30822323Y46845572D01*
X30822323Y46655096D01*
X30774704Y46559858D01*
X30727085Y46512239D01*
X30631847Y46464620D01*
X30441371Y46464620D01*
X30346133Y46512239D01*
X30298514Y46559858D01*
X30250895Y46655096D01*
X30250895Y46845572D01*
X30298514Y46940810D01*
X30346133Y46988429D01*
X30441371Y47036048D01*
X32155657Y43416620D02*
X32488990Y43892810D01*
X32727085Y43416620D02*
X32727085Y44416620D01*
X32346133Y44416620D01*
X32250895Y44369000D01*
X32203276Y44321381D01*
X32155657Y44226143D01*
X32155657Y44083286D01*
X32203276Y43988048D01*
X32250895Y43940429D01*
X32346133Y43892810D01*
X32727085Y43892810D01*
X31774704Y44321381D02*
X31727085Y44369000D01*
X31631847Y44416620D01*
X31393752Y44416620D01*
X31298514Y44369000D01*
X31250895Y44321381D01*
X31203276Y44226143D01*
X31203276Y44130905D01*
X31250895Y43988048D01*
X31822323Y43416620D01*
X31203276Y43416620D01*
X30631847Y43988048D02*
X30727085Y44035667D01*
X30774704Y44083286D01*
X30822323Y44178524D01*
X30822323Y44226143D01*
X30774704Y44321381D01*
X30727085Y44369000D01*
X30631847Y44416620D01*
X30441371Y44416620D01*
X30346133Y44369000D01*
X30298514Y44321381D01*
X30250895Y44226143D01*
X30250895Y44178524D01*
X30298514Y44083286D01*
X30346133Y44035667D01*
X30441371Y43988048D01*
X30631847Y43988048D01*
X30727085Y43940429D01*
X30774704Y43892810D01*
X30822323Y43797572D01*
X30822323Y43607096D01*
X30774704Y43511858D01*
X30727085Y43464239D01*
X30631847Y43416620D01*
X30441371Y43416620D01*
X30346133Y43464239D01*
X30298514Y43511858D01*
X30250895Y43607096D01*
X30250895Y43797572D01*
X30298514Y43892810D01*
X30346133Y43940429D01*
X30441371Y43988048D01*
X20788514Y19397715D02*
X20817085Y19369143D01*
X20902800Y19340572D01*
X20959942Y19340572D01*
X21045657Y19369143D01*
X21102800Y19426286D01*
X21131371Y19483429D01*
X21159942Y19597715D01*
X21159942Y19683429D01*
X21131371Y19797715D01*
X21102800Y19854858D01*
X21045657Y19912000D01*
X20959942Y19940572D01*
X20902800Y19940572D01*
X20817085Y19912000D01*
X20788514Y19883429D01*
X20245657Y19940572D02*
X20531371Y19940572D01*
X20559942Y19654858D01*
X20531371Y19683429D01*
X20474228Y19712000D01*
X20331371Y19712000D01*
X20274228Y19683429D01*
X20245657Y19654858D01*
X20217085Y19597715D01*
X20217085Y19454858D01*
X20245657Y19397715D01*
X20274228Y19369143D01*
X20331371Y19340572D01*
X20474228Y19340572D01*
X20531371Y19369143D01*
X20559942Y19397715D01*
X19645657Y19340572D02*
X19988514Y19340572D01*
X19817085Y19340572D02*
X19817085Y19940572D01*
X19874228Y19854858D01*
X19931371Y19797715D01*
X19988514Y19769143D01*
X44878428Y46439115D02*
X44592714Y46639115D01*
X44878428Y46781972D02*
X44278428Y46781972D01*
X44278428Y46553400D01*
X44307000Y46496258D01*
X44335571Y46467686D01*
X44392714Y46439115D01*
X44478428Y46439115D01*
X44535571Y46467686D01*
X44564142Y46496258D01*
X44592714Y46553400D01*
X44592714Y46781972D01*
X44478428Y45924829D02*
X44878428Y45924829D01*
X44249857Y46067686D02*
X44678428Y46210543D01*
X44678428Y45839115D01*
X44335571Y45639115D02*
X44307000Y45610543D01*
X44278428Y45553400D01*
X44278428Y45410543D01*
X44307000Y45353400D01*
X44335571Y45324829D01*
X44392714Y45296258D01*
X44449857Y45296258D01*
X44535571Y45324829D01*
X44878428Y45667686D01*
X44878428Y45296258D01*
X40814428Y52839915D02*
X40528714Y53039915D01*
X40814428Y53182772D02*
X40214428Y53182772D01*
X40214428Y52954200D01*
X40243000Y52897058D01*
X40271571Y52868486D01*
X40328714Y52839915D01*
X40414428Y52839915D01*
X40471571Y52868486D01*
X40500142Y52897058D01*
X40528714Y52954200D01*
X40528714Y53182772D01*
X40271571Y52611343D02*
X40243000Y52582772D01*
X40214428Y52525629D01*
X40214428Y52382772D01*
X40243000Y52325629D01*
X40271571Y52297058D01*
X40328714Y52268486D01*
X40385857Y52268486D01*
X40471571Y52297058D01*
X40814428Y52639915D01*
X40814428Y52268486D01*
X40214428Y52068486D02*
X40214428Y51697058D01*
X40443000Y51897058D01*
X40443000Y51811343D01*
X40471571Y51754200D01*
X40500142Y51725629D01*
X40557285Y51697058D01*
X40700142Y51697058D01*
X40757285Y51725629D01*
X40785857Y51754200D01*
X40814428Y51811343D01*
X40814428Y51982772D01*
X40785857Y52039915D01*
X40757285Y52068486D01*
X13994657Y20684858D02*
X14042276Y20637239D01*
X14185133Y20589620D01*
X14280371Y20589620D01*
X14423228Y20637239D01*
X14518466Y20732477D01*
X14566085Y20827715D01*
X14613704Y21018191D01*
X14613704Y21161048D01*
X14566085Y21351524D01*
X14518466Y21446762D01*
X14423228Y21542000D01*
X14280371Y21589620D01*
X14185133Y21589620D01*
X14042276Y21542000D01*
X13994657Y21494381D01*
X13137514Y21589620D02*
X13327990Y21589620D01*
X13423228Y21542000D01*
X13470847Y21494381D01*
X13566085Y21351524D01*
X13613704Y21161048D01*
X13613704Y20780096D01*
X13566085Y20684858D01*
X13518466Y20637239D01*
X13423228Y20589620D01*
X13232752Y20589620D01*
X13137514Y20637239D01*
X13089895Y20684858D01*
X13042276Y20780096D01*
X13042276Y21018191D01*
X13089895Y21113429D01*
X13137514Y21161048D01*
X13232752Y21208667D01*
X13423228Y21208667D01*
X13518466Y21161048D01*
X13566085Y21113429D01*
X13613704Y21018191D01*
X12089895Y20589620D02*
X12661323Y20589620D01*
X12375609Y20589620D02*
X12375609Y21589620D01*
X12470847Y21446762D01*
X12566085Y21351524D01*
X12661323Y21303905D01*
X40789028Y44915115D02*
X40503314Y45115115D01*
X40789028Y45257972D02*
X40189028Y45257972D01*
X40189028Y45029400D01*
X40217600Y44972258D01*
X40246171Y44943686D01*
X40303314Y44915115D01*
X40389028Y44915115D01*
X40446171Y44943686D01*
X40474742Y44972258D01*
X40503314Y45029400D01*
X40503314Y45257972D01*
X40189028Y44372258D02*
X40189028Y44657972D01*
X40474742Y44686543D01*
X40446171Y44657972D01*
X40417600Y44600829D01*
X40417600Y44457972D01*
X40446171Y44400829D01*
X40474742Y44372258D01*
X40531885Y44343686D01*
X40674742Y44343686D01*
X40731885Y44372258D01*
X40760457Y44400829D01*
X40789028Y44457972D01*
X40789028Y44600829D01*
X40760457Y44657972D01*
X40731885Y44686543D01*
X40246171Y44115115D02*
X40217600Y44086543D01*
X40189028Y44029400D01*
X40189028Y43886543D01*
X40217600Y43829400D01*
X40246171Y43800829D01*
X40303314Y43772258D01*
X40360457Y43772258D01*
X40446171Y43800829D01*
X40789028Y44143686D01*
X40789028Y43772258D01*
X32155657Y54084620D02*
X32488990Y54560810D01*
X32727085Y54084620D02*
X32727085Y55084620D01*
X32346133Y55084620D01*
X32250895Y55037000D01*
X32203276Y54989381D01*
X32155657Y54894143D01*
X32155657Y54751286D01*
X32203276Y54656048D01*
X32250895Y54608429D01*
X32346133Y54560810D01*
X32727085Y54560810D01*
X31298514Y54751286D02*
X31298514Y54084620D01*
X31536609Y55132239D02*
X31774704Y54417953D01*
X31155657Y54417953D01*
X30298514Y55084620D02*
X30774704Y55084620D01*
X30822323Y54608429D01*
X30774704Y54656048D01*
X30679466Y54703667D01*
X30441371Y54703667D01*
X30346133Y54656048D01*
X30298514Y54608429D01*
X30250895Y54513191D01*
X30250895Y54275096D01*
X30298514Y54179858D01*
X30346133Y54132239D01*
X30441371Y54084620D01*
X30679466Y54084620D01*
X30774704Y54132239D01*
X30822323Y54179858D01*
X44878428Y51315915D02*
X44592714Y51515915D01*
X44878428Y51658772D02*
X44278428Y51658772D01*
X44278428Y51430200D01*
X44307000Y51373058D01*
X44335571Y51344486D01*
X44392714Y51315915D01*
X44478428Y51315915D01*
X44535571Y51344486D01*
X44564142Y51373058D01*
X44592714Y51430200D01*
X44592714Y51658772D01*
X44278428Y50801629D02*
X44278428Y50915915D01*
X44307000Y50973058D01*
X44335571Y51001629D01*
X44421285Y51058772D01*
X44535571Y51087343D01*
X44764142Y51087343D01*
X44821285Y51058772D01*
X44849857Y51030200D01*
X44878428Y50973058D01*
X44878428Y50858772D01*
X44849857Y50801629D01*
X44821285Y50773058D01*
X44764142Y50744486D01*
X44621285Y50744486D01*
X44564142Y50773058D01*
X44535571Y50801629D01*
X44507000Y50858772D01*
X44507000Y50973058D01*
X44535571Y51030200D01*
X44564142Y51058772D01*
X44621285Y51087343D01*
X44278428Y50230200D02*
X44278428Y50344486D01*
X44307000Y50401629D01*
X44335571Y50430200D01*
X44421285Y50487343D01*
X44535571Y50515915D01*
X44764142Y50515915D01*
X44821285Y50487343D01*
X44849857Y50458772D01*
X44878428Y50401629D01*
X44878428Y50287343D01*
X44849857Y50230200D01*
X44821285Y50201629D01*
X44764142Y50173058D01*
X44621285Y50173058D01*
X44564142Y50201629D01*
X44535571Y50230200D01*
X44507000Y50287343D01*
X44507000Y50401629D01*
X44535571Y50458772D01*
X44564142Y50487343D01*
X44621285Y50515915D01*
X32155657Y44940620D02*
X32488990Y45416810D01*
X32727085Y44940620D02*
X32727085Y45940620D01*
X32346133Y45940620D01*
X32250895Y45893000D01*
X32203276Y45845381D01*
X32155657Y45750143D01*
X32155657Y45607286D01*
X32203276Y45512048D01*
X32250895Y45464429D01*
X32346133Y45416810D01*
X32727085Y45416810D01*
X31298514Y45607286D02*
X31298514Y44940620D01*
X31536609Y45988239D02*
X31774704Y45273953D01*
X31155657Y45273953D01*
X30869942Y45940620D02*
X30203276Y45940620D01*
X30631847Y44940620D01*
X32155657Y51036620D02*
X32488990Y51512810D01*
X32727085Y51036620D02*
X32727085Y52036620D01*
X32346133Y52036620D01*
X32250895Y51989000D01*
X32203276Y51941381D01*
X32155657Y51846143D01*
X32155657Y51703286D01*
X32203276Y51608048D01*
X32250895Y51560429D01*
X32346133Y51512810D01*
X32727085Y51512810D01*
X31250895Y52036620D02*
X31727085Y52036620D01*
X31774704Y51560429D01*
X31727085Y51608048D01*
X31631847Y51655667D01*
X31393752Y51655667D01*
X31298514Y51608048D01*
X31250895Y51560429D01*
X31203276Y51465191D01*
X31203276Y51227096D01*
X31250895Y51131858D01*
X31298514Y51084239D01*
X31393752Y51036620D01*
X31631847Y51036620D01*
X31727085Y51084239D01*
X31774704Y51131858D01*
X30298514Y52036620D02*
X30774704Y52036620D01*
X30822323Y51560429D01*
X30774704Y51608048D01*
X30679466Y51655667D01*
X30441371Y51655667D01*
X30346133Y51608048D01*
X30298514Y51560429D01*
X30250895Y51465191D01*
X30250895Y51227096D01*
X30298514Y51131858D01*
X30346133Y51084239D01*
X30441371Y51036620D01*
X30679466Y51036620D01*
X30774704Y51084239D01*
X30822323Y51131858D01*
X29589885Y13749315D02*
X29618457Y13777886D01*
X29647028Y13863600D01*
X29647028Y13920743D01*
X29618457Y14006458D01*
X29561314Y14063600D01*
X29504171Y14092172D01*
X29389885Y14120743D01*
X29304171Y14120743D01*
X29189885Y14092172D01*
X29132742Y14063600D01*
X29075600Y14006458D01*
X29047028Y13920743D01*
X29047028Y13863600D01*
X29075600Y13777886D01*
X29104171Y13749315D01*
X29047028Y13206458D02*
X29047028Y13492172D01*
X29332742Y13520743D01*
X29304171Y13492172D01*
X29275600Y13435029D01*
X29275600Y13292172D01*
X29304171Y13235029D01*
X29332742Y13206458D01*
X29389885Y13177886D01*
X29532742Y13177886D01*
X29589885Y13206458D01*
X29618457Y13235029D01*
X29647028Y13292172D01*
X29647028Y13435029D01*
X29618457Y13492172D01*
X29589885Y13520743D01*
X29047028Y12635029D02*
X29047028Y12920743D01*
X29332742Y12949315D01*
X29304171Y12920743D01*
X29275600Y12863600D01*
X29275600Y12720743D01*
X29304171Y12663600D01*
X29332742Y12635029D01*
X29389885Y12606458D01*
X29532742Y12606458D01*
X29589885Y12635029D01*
X29618457Y12663600D01*
X29647028Y12720743D01*
X29647028Y12863600D01*
X29618457Y12920743D01*
X29589885Y12949315D01*
X15261942Y7732658D02*
X15309561Y7780277D01*
X15357180Y7923134D01*
X15357180Y8018372D01*
X15309561Y8161229D01*
X15214323Y8256467D01*
X15119085Y8304086D01*
X14928609Y8351705D01*
X14785752Y8351705D01*
X14595276Y8304086D01*
X14500038Y8256467D01*
X14404800Y8161229D01*
X14357180Y8018372D01*
X14357180Y7923134D01*
X14404800Y7780277D01*
X14452419Y7732658D01*
X14357180Y6875515D02*
X14357180Y7065991D01*
X14404800Y7161229D01*
X14452419Y7208848D01*
X14595276Y7304086D01*
X14785752Y7351705D01*
X15166704Y7351705D01*
X15261942Y7304086D01*
X15309561Y7256467D01*
X15357180Y7161229D01*
X15357180Y6970753D01*
X15309561Y6875515D01*
X15261942Y6827896D01*
X15166704Y6780277D01*
X14928609Y6780277D01*
X14833371Y6827896D01*
X14785752Y6875515D01*
X14738133Y6970753D01*
X14738133Y7161229D01*
X14785752Y7256467D01*
X14833371Y7304086D01*
X14928609Y7351705D01*
X14357180Y6161229D02*
X14357180Y6065991D01*
X14404800Y5970753D01*
X14452419Y5923134D01*
X14547657Y5875515D01*
X14738133Y5827896D01*
X14976228Y5827896D01*
X15166704Y5875515D01*
X15261942Y5923134D01*
X15309561Y5970753D01*
X15357180Y6065991D01*
X15357180Y6161229D01*
X15309561Y6256467D01*
X15261942Y6304086D01*
X15166704Y6351705D01*
X14976228Y6399324D01*
X14738133Y6399324D01*
X14547657Y6351705D01*
X14452419Y6304086D01*
X14404800Y6256467D01*
X14357180Y6161229D01*
X32231857Y40438458D02*
X32279476Y40390839D01*
X32422333Y40343220D01*
X32517571Y40343220D01*
X32660428Y40390839D01*
X32755666Y40486077D01*
X32803285Y40581315D01*
X32850904Y40771791D01*
X32850904Y40914648D01*
X32803285Y41105124D01*
X32755666Y41200362D01*
X32660428Y41295600D01*
X32517571Y41343220D01*
X32422333Y41343220D01*
X32279476Y41295600D01*
X32231857Y41247981D01*
X31374714Y41343220D02*
X31565190Y41343220D01*
X31660428Y41295600D01*
X31708047Y41247981D01*
X31803285Y41105124D01*
X31850904Y40914648D01*
X31850904Y40533696D01*
X31803285Y40438458D01*
X31755666Y40390839D01*
X31660428Y40343220D01*
X31469952Y40343220D01*
X31374714Y40390839D01*
X31327095Y40438458D01*
X31279476Y40533696D01*
X31279476Y40771791D01*
X31327095Y40867029D01*
X31374714Y40914648D01*
X31469952Y40962267D01*
X31660428Y40962267D01*
X31755666Y40914648D01*
X31803285Y40867029D01*
X31850904Y40771791D01*
X30374714Y41343220D02*
X30850904Y41343220D01*
X30898523Y40867029D01*
X30850904Y40914648D01*
X30755666Y40962267D01*
X30517571Y40962267D01*
X30422333Y40914648D01*
X30374714Y40867029D01*
X30327095Y40771791D01*
X30327095Y40533696D01*
X30374714Y40438458D01*
X30422333Y40390839D01*
X30517571Y40343220D01*
X30755666Y40343220D01*
X30850904Y40390839D01*
X30898523Y40438458D01*
X40436057Y18627458D02*
X40483676Y18579839D01*
X40626533Y18532220D01*
X40721771Y18532220D01*
X40864628Y18579839D01*
X40959866Y18675077D01*
X41007485Y18770315D01*
X41055104Y18960791D01*
X41055104Y19103648D01*
X41007485Y19294124D01*
X40959866Y19389362D01*
X40864628Y19484600D01*
X40721771Y19532220D01*
X40626533Y19532220D01*
X40483676Y19484600D01*
X40436057Y19436981D01*
X39578914Y19532220D02*
X39769390Y19532220D01*
X39864628Y19484600D01*
X39912247Y19436981D01*
X40007485Y19294124D01*
X40055104Y19103648D01*
X40055104Y18722696D01*
X40007485Y18627458D01*
X39959866Y18579839D01*
X39864628Y18532220D01*
X39674152Y18532220D01*
X39578914Y18579839D01*
X39531295Y18627458D01*
X39483676Y18722696D01*
X39483676Y18960791D01*
X39531295Y19056029D01*
X39578914Y19103648D01*
X39674152Y19151267D01*
X39864628Y19151267D01*
X39959866Y19103648D01*
X40007485Y19056029D01*
X40055104Y18960791D01*
X39102723Y19436981D02*
X39055104Y19484600D01*
X38959866Y19532220D01*
X38721771Y19532220D01*
X38626533Y19484600D01*
X38578914Y19436981D01*
X38531295Y19341743D01*
X38531295Y19246505D01*
X38578914Y19103648D01*
X39150342Y18532220D01*
X38531295Y18532220D01*
X44700628Y54363915D02*
X44414914Y54563915D01*
X44700628Y54706772D02*
X44100628Y54706772D01*
X44100628Y54478200D01*
X44129200Y54421058D01*
X44157771Y54392486D01*
X44214914Y54363915D01*
X44300628Y54363915D01*
X44357771Y54392486D01*
X44386342Y54421058D01*
X44414914Y54478200D01*
X44414914Y54706772D01*
X44300628Y53849629D02*
X44700628Y53849629D01*
X44072057Y53992486D02*
X44500628Y54135343D01*
X44500628Y53763915D01*
X44700628Y53506772D02*
X44700628Y53392486D01*
X44672057Y53335343D01*
X44643485Y53306772D01*
X44557771Y53249629D01*
X44443485Y53221058D01*
X44214914Y53221058D01*
X44157771Y53249629D01*
X44129200Y53278200D01*
X44100628Y53335343D01*
X44100628Y53449629D01*
X44129200Y53506772D01*
X44157771Y53535343D01*
X44214914Y53563915D01*
X44357771Y53563915D01*
X44414914Y53535343D01*
X44443485Y53506772D01*
X44472057Y53449629D01*
X44472057Y53335343D01*
X44443485Y53278200D01*
X44414914Y53249629D01*
X44357771Y53221058D01*
X30338914Y8729715D02*
X30367485Y8701143D01*
X30453200Y8672572D01*
X30510342Y8672572D01*
X30596057Y8701143D01*
X30653200Y8758286D01*
X30681771Y8815429D01*
X30710342Y8929715D01*
X30710342Y9015429D01*
X30681771Y9129715D01*
X30653200Y9186858D01*
X30596057Y9244000D01*
X30510342Y9272572D01*
X30453200Y9272572D01*
X30367485Y9244000D01*
X30338914Y9215429D01*
X29796057Y9272572D02*
X30081771Y9272572D01*
X30110342Y8986858D01*
X30081771Y9015429D01*
X30024628Y9044000D01*
X29881771Y9044000D01*
X29824628Y9015429D01*
X29796057Y8986858D01*
X29767485Y8929715D01*
X29767485Y8786858D01*
X29796057Y8729715D01*
X29824628Y8701143D01*
X29881771Y8672572D01*
X30024628Y8672572D01*
X30081771Y8701143D01*
X30110342Y8729715D01*
X29253200Y9272572D02*
X29367485Y9272572D01*
X29424628Y9244000D01*
X29453200Y9215429D01*
X29510342Y9129715D01*
X29538914Y9015429D01*
X29538914Y8786858D01*
X29510342Y8729715D01*
X29481771Y8701143D01*
X29424628Y8672572D01*
X29310342Y8672572D01*
X29253200Y8701143D01*
X29224628Y8729715D01*
X29196057Y8786858D01*
X29196057Y8929715D01*
X29224628Y8986858D01*
X29253200Y9015429D01*
X29310342Y9044000D01*
X29424628Y9044000D01*
X29481771Y9015429D01*
X29510342Y8986858D01*
X29538914Y8929715D01*
X42972914Y48575972D02*
X43172914Y48861686D01*
X43315771Y48575972D02*
X43315771Y49175972D01*
X43087200Y49175972D01*
X43030057Y49147400D01*
X43001485Y49118829D01*
X42972914Y49061686D01*
X42972914Y48975972D01*
X43001485Y48918829D01*
X43030057Y48890258D01*
X43087200Y48861686D01*
X43315771Y48861686D01*
X42458628Y49175972D02*
X42572914Y49175972D01*
X42630057Y49147400D01*
X42658628Y49118829D01*
X42715771Y49033115D01*
X42744342Y48918829D01*
X42744342Y48690258D01*
X42715771Y48633115D01*
X42687200Y48604543D01*
X42630057Y48575972D01*
X42515771Y48575972D01*
X42458628Y48604543D01*
X42430057Y48633115D01*
X42401485Y48690258D01*
X42401485Y48833115D01*
X42430057Y48890258D01*
X42458628Y48918829D01*
X42515771Y48947400D01*
X42630057Y48947400D01*
X42687200Y48918829D01*
X42715771Y48890258D01*
X42744342Y48833115D01*
X42201485Y49175972D02*
X41801485Y49175972D01*
X42058628Y48575972D01*
X44878428Y57411915D02*
X44592714Y57611915D01*
X44878428Y57754772D02*
X44278428Y57754772D01*
X44278428Y57526200D01*
X44307000Y57469058D01*
X44335571Y57440486D01*
X44392714Y57411915D01*
X44478428Y57411915D01*
X44535571Y57440486D01*
X44564142Y57469058D01*
X44592714Y57526200D01*
X44592714Y57754772D01*
X44478428Y56897629D02*
X44878428Y56897629D01*
X44249857Y57040486D02*
X44678428Y57183343D01*
X44678428Y56811915D01*
X44878428Y56269058D02*
X44878428Y56611915D01*
X44878428Y56440486D02*
X44278428Y56440486D01*
X44364142Y56497629D01*
X44421285Y56554772D01*
X44449857Y56611915D01*
X32155657Y55608620D02*
X32488990Y56084810D01*
X32727085Y55608620D02*
X32727085Y56608620D01*
X32346133Y56608620D01*
X32250895Y56561000D01*
X32203276Y56513381D01*
X32155657Y56418143D01*
X32155657Y56275286D01*
X32203276Y56180048D01*
X32250895Y56132429D01*
X32346133Y56084810D01*
X32727085Y56084810D01*
X31298514Y56275286D02*
X31298514Y55608620D01*
X31536609Y56656239D02*
X31774704Y55941953D01*
X31155657Y55941953D01*
X30346133Y56608620D02*
X30536609Y56608620D01*
X30631847Y56561000D01*
X30679466Y56513381D01*
X30774704Y56370524D01*
X30822323Y56180048D01*
X30822323Y55799096D01*
X30774704Y55703858D01*
X30727085Y55656239D01*
X30631847Y55608620D01*
X30441371Y55608620D01*
X30346133Y55656239D01*
X30298514Y55703858D01*
X30250895Y55799096D01*
X30250895Y56037191D01*
X30298514Y56132429D01*
X30346133Y56180048D01*
X30441371Y56227667D01*
X30631847Y56227667D01*
X30727085Y56180048D01*
X30774704Y56132429D01*
X30822323Y56037191D01*
X20881285Y24214115D02*
X20909857Y24242686D01*
X20938428Y24328400D01*
X20938428Y24385543D01*
X20909857Y24471258D01*
X20852714Y24528400D01*
X20795571Y24556972D01*
X20681285Y24585543D01*
X20595571Y24585543D01*
X20481285Y24556972D01*
X20424142Y24528400D01*
X20367000Y24471258D01*
X20338428Y24385543D01*
X20338428Y24328400D01*
X20367000Y24242686D01*
X20395571Y24214115D01*
X20338428Y23671258D02*
X20338428Y23956972D01*
X20624142Y23985543D01*
X20595571Y23956972D01*
X20567000Y23899829D01*
X20567000Y23756972D01*
X20595571Y23699829D01*
X20624142Y23671258D01*
X20681285Y23642686D01*
X20824142Y23642686D01*
X20881285Y23671258D01*
X20909857Y23699829D01*
X20938428Y23756972D01*
X20938428Y23899829D01*
X20909857Y23956972D01*
X20881285Y23985543D01*
X20395571Y23414115D02*
X20367000Y23385543D01*
X20338428Y23328400D01*
X20338428Y23185543D01*
X20367000Y23128400D01*
X20395571Y23099829D01*
X20452714Y23071258D01*
X20509857Y23071258D01*
X20595571Y23099829D01*
X20938428Y23442686D01*
X20938428Y23071258D01*
X21281314Y17340315D02*
X21309885Y17311743D01*
X21395600Y17283172D01*
X21452742Y17283172D01*
X21538457Y17311743D01*
X21595600Y17368886D01*
X21624171Y17426029D01*
X21652742Y17540315D01*
X21652742Y17626029D01*
X21624171Y17740315D01*
X21595600Y17797458D01*
X21538457Y17854600D01*
X21452742Y17883172D01*
X21395600Y17883172D01*
X21309885Y17854600D01*
X21281314Y17826029D01*
X20738457Y17883172D02*
X21024171Y17883172D01*
X21052742Y17597458D01*
X21024171Y17626029D01*
X20967028Y17654600D01*
X20824171Y17654600D01*
X20767028Y17626029D01*
X20738457Y17597458D01*
X20709885Y17540315D01*
X20709885Y17397458D01*
X20738457Y17340315D01*
X20767028Y17311743D01*
X20824171Y17283172D01*
X20967028Y17283172D01*
X21024171Y17311743D01*
X21052742Y17340315D01*
X20338457Y17883172D02*
X20281314Y17883172D01*
X20224171Y17854600D01*
X20195600Y17826029D01*
X20167028Y17768886D01*
X20138457Y17654600D01*
X20138457Y17511743D01*
X20167028Y17397458D01*
X20195600Y17340315D01*
X20224171Y17311743D01*
X20281314Y17283172D01*
X20338457Y17283172D01*
X20395600Y17311743D01*
X20424171Y17340315D01*
X20452742Y17397458D01*
X20481314Y17511743D01*
X20481314Y17654600D01*
X20452742Y17768886D01*
X20424171Y17826029D01*
X20395600Y17854600D01*
X20338457Y17883172D01*
X30616457Y20347058D02*
X30664076Y20299439D01*
X30806933Y20251820D01*
X30902171Y20251820D01*
X31045028Y20299439D01*
X31140266Y20394677D01*
X31187885Y20489915D01*
X31235504Y20680391D01*
X31235504Y20823248D01*
X31187885Y21013724D01*
X31140266Y21108962D01*
X31045028Y21204200D01*
X30902171Y21251820D01*
X30806933Y21251820D01*
X30664076Y21204200D01*
X30616457Y21156581D01*
X29711695Y21251820D02*
X30187885Y21251820D01*
X30235504Y20775629D01*
X30187885Y20823248D01*
X30092647Y20870867D01*
X29854552Y20870867D01*
X29759314Y20823248D01*
X29711695Y20775629D01*
X29664076Y20680391D01*
X29664076Y20442296D01*
X29711695Y20347058D01*
X29759314Y20299439D01*
X29854552Y20251820D01*
X30092647Y20251820D01*
X30187885Y20299439D01*
X30235504Y20347058D01*
X29187885Y20251820D02*
X28997409Y20251820D01*
X28902171Y20299439D01*
X28854552Y20347058D01*
X28759314Y20489915D01*
X28711695Y20680391D01*
X28711695Y21061343D01*
X28759314Y21156581D01*
X28806933Y21204200D01*
X28902171Y21251820D01*
X29092647Y21251820D01*
X29187885Y21204200D01*
X29235504Y21156581D01*
X29283123Y21061343D01*
X29283123Y20823248D01*
X29235504Y20728010D01*
X29187885Y20680391D01*
X29092647Y20632772D01*
X28902171Y20632772D01*
X28806933Y20680391D01*
X28759314Y20728010D01*
X28711695Y20823248D01*
X40814428Y58935915D02*
X40528714Y59135915D01*
X40814428Y59278772D02*
X40214428Y59278772D01*
X40214428Y59050200D01*
X40243000Y58993058D01*
X40271571Y58964486D01*
X40328714Y58935915D01*
X40414428Y58935915D01*
X40471571Y58964486D01*
X40500142Y58993058D01*
X40528714Y59050200D01*
X40528714Y59278772D01*
X40214428Y58735915D02*
X40214428Y58335915D01*
X40814428Y58593058D01*
X40214428Y57993058D02*
X40214428Y57935915D01*
X40243000Y57878772D01*
X40271571Y57850200D01*
X40328714Y57821629D01*
X40443000Y57793058D01*
X40585857Y57793058D01*
X40700142Y57821629D01*
X40757285Y57850200D01*
X40785857Y57878772D01*
X40814428Y57935915D01*
X40814428Y57993058D01*
X40785857Y58050200D01*
X40757285Y58078772D01*
X40700142Y58107343D01*
X40585857Y58135915D01*
X40443000Y58135915D01*
X40328714Y58107343D01*
X40271571Y58078772D01*
X40243000Y58050200D01*
X40214428Y57993058D01*
D11*
X34735058Y49442500D02*
X34260542Y49442500D01*
X34735058Y50487500D02*
X34260542Y50487500D01*
X34260542Y53535500D02*
X34735058Y53535500D01*
X34260542Y52490500D02*
X34735058Y52490500D01*
X34260542Y58107500D02*
X34735058Y58107500D01*
X34260542Y57062500D02*
X34735058Y57062500D01*
X29691948Y15346400D02*
X30214452Y15346400D01*
X29691948Y16816400D02*
X30214452Y16816400D01*
X42812258Y39434900D02*
X42337742Y39434900D01*
X42812258Y40479900D02*
X42337742Y40479900D01*
X38100058Y59094500D02*
X37625542Y59094500D01*
X38100058Y60139500D02*
X37625542Y60139500D01*
X42337742Y54979700D02*
X42812258Y54979700D01*
X42337742Y56024700D02*
X42812258Y56024700D01*
X2026348Y36780800D02*
X2548852Y36780800D01*
X2026348Y35310800D02*
X2548852Y35310800D01*
X48786800Y41190180D02*
X48786800Y40909020D01*
X47766800Y41190180D02*
X47766800Y40909020D01*
X20598052Y9860000D02*
X20075548Y9860000D01*
X20598052Y11330000D02*
X20075548Y11330000D01*
X2641658Y37402900D02*
X2167142Y37402900D01*
X2641658Y38447900D02*
X2167142Y38447900D01*
X20024748Y27382800D02*
X20547252Y27382800D01*
X20024748Y25912800D02*
X20547252Y25912800D01*
X34260542Y47918500D02*
X34735058Y47918500D01*
X34260542Y48963500D02*
X34735058Y48963500D01*
X37480620Y49865400D02*
X37761780Y49865400D01*
X37480620Y48845400D02*
X37761780Y48845400D01*
X32044600Y25486652D02*
X32044600Y24964148D01*
X30574600Y25486652D02*
X30574600Y24964148D01*
X19903400Y13127748D02*
X19903400Y13650252D01*
X18433400Y13127748D02*
X18433400Y13650252D01*
X30012600Y24964148D02*
X30012600Y25486652D01*
X28542600Y24964148D02*
X28542600Y25486652D01*
X46740980Y49713000D02*
X46459820Y49713000D01*
X46740980Y48693000D02*
X46459820Y48693000D01*
X27986000Y32981800D02*
X26586000Y32981800D01*
X25886000Y32281800D02*
X25886000Y31681800D01*
X26586000Y30981800D02*
X27986000Y30981800D01*
X28686000Y31681800D02*
X28686000Y32281800D01*
X27986000Y30981800D02*
G75*
G03*
X28686000Y31681800I1J699999D01*
G01*
X25886000Y31681800D02*
G75*
G03*
X26586000Y30981800I699999J-1D01*
G01*
X28686000Y32281800D02*
G75*
G03*
X27986000Y32981800I-699999J1D01*
G01*
X26586000Y32981800D02*
G75*
G03*
X25886000Y32281800I-1J-699999D01*
G01*
X42337742Y43578700D02*
X42812258Y43578700D01*
X42337742Y42533700D02*
X42812258Y42533700D01*
X34735058Y41822500D02*
X34260542Y41822500D01*
X34735058Y42867500D02*
X34260542Y42867500D01*
X40156052Y27767000D02*
X39633548Y27767000D01*
X40156052Y29237000D02*
X39633548Y29237000D01*
X42337742Y42003900D02*
X42812258Y42003900D01*
X42337742Y40958900D02*
X42812258Y40958900D01*
X34260542Y47439500D02*
X34735058Y47439500D01*
X34260542Y46394500D02*
X34735058Y46394500D01*
X34260542Y43346500D02*
X34735058Y43346500D01*
X34260542Y44391500D02*
X34735058Y44391500D01*
X20562452Y21794800D02*
X20039948Y21794800D01*
X20562452Y20324800D02*
X20039948Y20324800D01*
X42337742Y46575900D02*
X42812258Y46575900D01*
X42337742Y45530900D02*
X42812258Y45530900D01*
X42337742Y52976700D02*
X42812258Y52976700D01*
X42337742Y51931700D02*
X42812258Y51931700D01*
X13492380Y19102000D02*
X13211220Y19102000D01*
X13492380Y20122000D02*
X13211220Y20122000D01*
X42337742Y45051900D02*
X42812258Y45051900D01*
X42337742Y44006900D02*
X42812258Y44006900D01*
X34260542Y54014500D02*
X34735058Y54014500D01*
X34260542Y55059500D02*
X34735058Y55059500D01*
X42812258Y50407700D02*
X42337742Y50407700D01*
X42812258Y51452700D02*
X42337742Y51452700D01*
X34260542Y44870500D02*
X34735058Y44870500D01*
X34260542Y45915500D02*
X34735058Y45915500D01*
X34735058Y52011500D02*
X34260542Y52011500D01*
X34735058Y50966500D02*
X34260542Y50966500D01*
X31790600Y13624852D02*
X31790600Y13102348D01*
X30320600Y13624852D02*
X30320600Y13102348D01*
X13959800Y6828548D02*
X13959800Y7351052D01*
X12489800Y6828548D02*
X12489800Y7351052D01*
X34637580Y41305600D02*
X34356420Y41305600D01*
X34637580Y40285600D02*
X34356420Y40285600D01*
X39933780Y17044600D02*
X39652620Y17044600D01*
X39933780Y18064600D02*
X39652620Y18064600D01*
X42337742Y53455700D02*
X42812258Y53455700D01*
X42337742Y54500700D02*
X42812258Y54500700D01*
X30163652Y11330000D02*
X29641148Y11330000D01*
X30163652Y9860000D02*
X29641148Y9860000D01*
X42824458Y48099900D02*
X42349942Y48099900D01*
X42824458Y47054900D02*
X42349942Y47054900D01*
X42337742Y57548700D02*
X42812258Y57548700D01*
X42337742Y56503700D02*
X42812258Y56503700D01*
X34260542Y55538500D02*
X34735058Y55538500D01*
X34260542Y56583500D02*
X34735058Y56583500D01*
X18382600Y23592548D02*
X18382600Y24115052D01*
X19852600Y23592548D02*
X19852600Y24115052D01*
X20024748Y16867200D02*
X20547252Y16867200D01*
X20024748Y15397200D02*
X20547252Y15397200D01*
X30351652Y21671000D02*
X29829148Y21671000D01*
X30351652Y23141000D02*
X29829148Y23141000D01*
X42812258Y59072700D02*
X42337742Y59072700D01*
X42812258Y58027700D02*
X42337742Y58027700D01*
M02*
