M48
; DRILL file {KiCad (6.0.1)} date Wed Dec 28 01:32:58 2022
; FORMAT={-:-/ absolute / metric / decimal}
; #@! TF.CreationDate,2022-12-28T01:32:58+09:00
; #@! TF.GenerationSoftware,Kicad,Pcbnew,(6.0.1)
; #@! TF.FileFunction,MixedPlating,1,2
FMAT,2
METRIC
; #@! TA.AperFunction,Plated,PTH,ViaDrill
T1C0.350
; #@! TA.AperFunction,Plated,PTH,ComponentDrill
T2C0.350
; #@! TA.AperFunction,Plated,PTH,ViaDrill
T3C0.400
; #@! TA.AperFunction,Plated,PTH,ViaDrill
T4C0.500
; #@! TA.AperFunction,Plated,PTH,ComponentDrill
T5C0.500
; #@! TA.AperFunction,Plated,PTH,ViaDrill
T6C0.600
; #@! TA.AperFunction,Plated,PTH,ComponentDrill
T7C0.750
; #@! TA.AperFunction,Plated,PTH,ViaDrill
T8C0.800
; #@! TA.AperFunction,Plated,PTH,ComponentDrill
T9C0.800
; #@! TA.AperFunction,Plated,PTH,ComponentDrill
T10C0.950
; #@! TA.AperFunction,Plated,PTH,ComponentDrill
T11C1.000
; #@! TA.AperFunction,NonPlated,NPTH,ComponentDrill
T12C0.650
; #@! TA.AperFunction,NonPlated,NPTH,ComponentDrill
T13C3.200
%
G90
G05
T1
X0.652Y55.02
X0.652Y52.759
X0.652Y50.473
X0.652Y47.679
X0.652Y45.774
X0.88Y37.925
X0.929Y29.02
X0.931Y41.38
X0.931Y39.551
X0.982Y43.259
X1.189Y13.621
X1.312Y18.85
X1.515Y12.398
X1.534Y32.287
X1.556Y23.041
X1.616Y33.24
X1.839Y31.423
X1.846Y55.045
X2.284Y26.318
X2.284Y22.254
X2.633Y33.582
X2.69Y31.059
X3.751Y30.693
X3.801Y48.06
X3.825Y44.252
X3.878Y6.988
X3.928Y11.382
X3.94Y13.46
X4.0Y14.387
X4.005Y8.106
X4.021Y46.841
X4.037Y29.575
X4.792Y45.926
X4.84Y18.18
X4.944Y57.052
X4.97Y33.068
X4.995Y56.061
X5.021Y19.219
X5.089Y8.986
X5.41Y15.38
X6.037Y42.497
X6.037Y46.815
X6.037Y38.484
X6.039Y43.666
X6.062Y39.678
X6.062Y26.521
X6.418Y17.224
X6.494Y8.055
X6.602Y6.081
X6.769Y38.26
X6.773Y66.759
X6.824Y55.553
X6.875Y58.477
X6.9Y54.131
X7.027Y70.844
X7.414Y3.872
X7.549Y54.805
X7.637Y62.487
X7.815Y12.652
X7.815Y11.509
X7.815Y10.493
X7.979Y5.877
X7.992Y24.032
X7.992Y23.143
X8.119Y34.598
X8.196Y54.08
X8.22Y33.05
X8.354Y38.198
X8.551Y39.221
X8.704Y41.735
X8.704Y12.652
X8.704Y11.509
X8.704Y10.493
X8.824Y49.868
X8.881Y53.394
X8.881Y23.651
X9.219Y67.999
X9.261Y45.42
X9.415Y70.945
X9.643Y35.487
X9.643Y24.032
X9.643Y23.143
X9.669Y55.553
X9.694Y14.481
X9.72Y12.652
X9.72Y11.509
X9.72Y10.493
X9.72Y52.632
X9.77Y51.413
X9.821Y37.925
X9.824Y38.837
X10.101Y55.121
X10.278Y70.945
X10.304Y20.882
X10.431Y50.724
X10.583Y48.8
X11.167Y53.953
X11.193Y63.935
X11.206Y45.89
X11.207Y52.22
X11.424Y46.854
X11.741Y42.837
X11.752Y43.971
X11.761Y39.527
X11.828Y44.86
X11.853Y70.945
X11.955Y19.993
X11.955Y45.825
X11.98Y19.231
X12.107Y63.452
X12.158Y62.487
X12.26Y38.103
X12.514Y65.992
X12.761Y52.417
X12.793Y33.414
X12.818Y44.961
X13.047Y34.598
X13.326Y38.992
X13.326Y36.376
X13.55Y44.788
X14.07Y33.42
X14.142Y45.252
X14.819Y44.926
X14.98Y37.186
X15.104Y32.363
X15.206Y55.248
X15.257Y38.992
X15.989Y44.652
X16.12Y6.567
X16.628Y34.979
X16.651Y39.037
X16.984Y58.499
X17.086Y31.575
X17.136Y37.392
X17.14Y56.13
X17.34Y67.923
X17.34Y30.356
X17.416Y3.864
X17.481Y41.583
X17.492Y42.294
X17.511Y40.317
X17.644Y38.992
X18.0Y58.525
X18.051Y33.15
X18.559Y63.021
X18.6Y47.9
X18.7Y52.1
X18.8Y44.8
X18.864Y67.542
X19.014Y61.622
X19.118Y38.027
X19.372Y34.369
X19.558Y67.039
X19.626Y33.201
X19.778Y30.356
X19.981Y61.649
X20.286Y67.974
X20.946Y59.642
X20.946Y58.728
X21.0Y57.204
X21.099Y42.276
X21.302Y38.027
X21.531Y4.169
X21.531Y3.305
X21.835Y39.018
X21.953Y43.167
X22.013Y57.204
X22.064Y44.645
X22.122Y36.667
X22.191Y35.792
X22.39Y3.305
X22.394Y4.169
X22.47Y30.356
X22.928Y39.17
X23.25Y3.297
X23.258Y4.169
X24.198Y40.703
X24.706Y33.607
X24.706Y32.591
X25.08Y56.01
X25.08Y48.339
X25.315Y30.356
X25.493Y46.13
X25.569Y55.096
X25.569Y54.029
X25.722Y56.01
X25.874Y56.95
X26.052Y33.557
X26.382Y56.01
X26.433Y55.096
X26.433Y54.029
X26.484Y46.13
X27.195Y39.145
X27.398Y59.668
X27.398Y58.347
X27.473Y52.954
X27.576Y35.081
X27.847Y38.636
X27.943Y53.541
X28.065Y54.283
X28.16Y59.668
X28.16Y58.347
X28.211Y30.356
X28.592Y33.887
X28.871Y59.668
X28.871Y58.347
X29.151Y40.11
X29.176Y55.655
X29.176Y54.943
X29.43Y57.636
X29.481Y36.554
X29.684Y37.875
X29.786Y69.14
X29.928Y55.655
X29.938Y54.943
X30.497Y73.991
X30.497Y34.217
X30.7Y64.291
X30.954Y30.356
X31.31Y64.799
X31.31Y63.833
X31.995Y46.917
X32.275Y57.077
X32.275Y36.655
X32.376Y34.217
X32.63Y69.14
X32.757Y46.892
X32.834Y57.585
X32.961Y48.009
X33.037Y53.013
X33.037Y43.869
X33.342Y73.991
X33.596Y30.255
X33.852Y33.892
X34.358Y35.995
X34.868Y33.892
X35.345Y35.144
X35.577Y69.14
X36.034Y30.356
X36.212Y73.966
X36.847Y62.411
X37.191Y30.991
X38.777Y47.628
X38.93Y36.63
X39.031Y73.943
X39.536Y47.669
X40.022Y36.579
X40.022Y26.978
X40.022Y25.835
X40.022Y24.565
X40.25Y15.523
X40.25Y14.38
X40.25Y13.11
X40.86Y57.026
X40.86Y52.454
X40.889Y25.81
X40.911Y44.529
X40.911Y43.056
X40.911Y26.978
X40.911Y24.565
X41.118Y14.354
X41.139Y15.523
X41.139Y13.11
X41.317Y33.252
X41.317Y31.017
X41.8Y26.978
X41.8Y25.835
X41.8Y24.565
X41.825Y36.605
X42.028Y15.523
X42.028Y14.38
X42.028Y13.11
X42.105Y30.331
X42.689Y28.248
X42.962Y18.85
X43.324Y16.31
X43.756Y38.154
X43.794Y19.739
X43.832Y10.849
X43.857Y7.471
X44.751Y38.489
X44.93Y27.105
X44.975Y36.655
X45.229Y25.962
X45.61Y16.158
X46.194Y11.484
X46.651Y36.02
X46.905Y7.928
X47.21Y38.713
X47.413Y30.255
X47.515Y31.093
X47.566Y34.141
X47.667Y36.655
X47.845Y27.943
X48.074Y16.107
X49.166Y29.391
T2
X16.725Y51.275
X16.725Y50.0
X16.725Y48.725
X18.0Y51.275
X18.0Y50.0
X18.0Y48.725
X19.275Y51.275
X19.275Y50.0
X19.275Y48.725
T3
X8.78Y25.708
X9.542Y25.708
X10.177Y26.089
X10.202Y26.902
X10.913Y14.659
X10.939Y26.089
X10.939Y16.945
X10.939Y16.183
X10.939Y15.421
X10.964Y26.902
X11.65Y15.04
X11.675Y15.802
X11.701Y26.902
X11.701Y26.089
X11.701Y17.326
X11.701Y16.564
X12.209Y12.627
X12.209Y11.865
X12.336Y24.108
X12.336Y23.346
X12.971Y12.627
X12.971Y11.865
X13.098Y23.346
X13.123Y24.108
X13.733Y12.627
X13.733Y11.865
X13.86Y23.346
X13.885Y24.108
X14.495Y12.627
X14.495Y11.865
X14.546Y24.108
X14.596Y23.346
X35.069Y25.581
X35.069Y24.819
X35.272Y13.338
X35.323Y14.1
X35.831Y25.581
X35.831Y24.819
X35.932Y13.338
X35.983Y14.1
X36.593Y25.581
X36.593Y24.819
X36.694Y14.1
X36.694Y13.338
X36.847Y22.66
X36.847Y21.974
X37.355Y25.581
X37.355Y24.819
X37.355Y14.1
X37.355Y13.338
X37.609Y22.66
X37.609Y21.974
X37.812Y11.23
X37.812Y10.443
X38.549Y11.23
X38.549Y10.443
X39.031Y22.66
X39.031Y21.974
X39.285Y11.23
X39.285Y10.443
X39.793Y22.66
X39.793Y21.974
X40.022Y11.23
X40.022Y10.443
X40.657Y10.9
T4
X41.673Y17.928
X44.721Y21.771
X44.848Y24.057
X47.261Y24.692
T6
X5.351Y67.389
X7.713Y21.873
X7.713Y19.968
X8.424Y20.907
X9.161Y19.942
X9.212Y21.72
X10.634Y29.594
X10.634Y28.375
X10.685Y8.639
X10.685Y7.623
X11.193Y67.558
X11.752Y8.639
X11.752Y7.623
X12.31Y29.594
X12.31Y28.375
X14.571Y28.756
X16.019Y8.461
X17.263Y8.461
X17.822Y28.705
X18.508Y8.461
X19.753Y8.461
X21.15Y28.705
X22.623Y26.292
X24.248Y28.731
X24.248Y26.292
X25.798Y72.063
X25.798Y70.412
X25.976Y28.527
X26.026Y27.105
X27.398Y28.527
X27.398Y27.105
X27.703Y72.825
X28.719Y28.527
X29.938Y28.527
X30.878Y17.961
X31.157Y42.259
X31.157Y40.503
X31.157Y28.527
X32.021Y17.961
X35.323Y20.374
X35.323Y19.358
X36.339Y28.908
X36.339Y8.309
X36.339Y6.785
X36.466Y20.374
X36.466Y19.358
X37.482Y17.707
X37.609Y28.858
X37.693Y8.309
X37.693Y6.785
X38.752Y28.858
X38.752Y17.707
X39.048Y8.309
X39.048Y6.785
X40.403Y8.309
X40.403Y6.785
X44.213Y60.887
X45.788Y60.887
X47.159Y60.887
X47.21Y62.208
X47.82Y57.585
X47.82Y56.061
X48.531Y62.157
X48.531Y60.887
T7
X3.116Y66.36
X3.116Y64.36
X3.116Y62.36
X3.116Y60.36
X9.296Y5.071
X9.296Y3.071
X38.168Y57.026
X38.168Y55.026
X38.168Y53.026
X38.168Y51.026
X38.168Y46.053
X38.168Y44.053
X38.168Y42.053
X38.168Y40.053
X38.879Y3.483
X40.879Y3.483
X45.94Y57.013
X45.94Y55.013
X45.94Y53.013
X45.94Y51.013
X45.94Y46.04
X45.94Y44.04
X45.94Y42.04
X45.94Y40.04
T8
X41.673Y72.774
X41.724Y65.51
X41.774Y64.087
X43.298Y67.034
X43.298Y65.459
X44.619Y67.034
X44.67Y65.459
X46.042Y67.034
X46.042Y65.459
T9
X23.187Y24.159
X23.187Y12.983
X26.687Y24.159
X26.687Y12.983
X32.63Y66.855
X32.63Y64.355
T10
X28.291Y3.991
X30.791Y3.991
X33.291Y3.991
T11
X16.357Y24.824
X16.357Y22.324
X16.357Y13.521
X16.357Y11.021
X23.74Y42.726
X26.28Y42.726
X28.82Y42.726
X33.511Y26.419
X33.511Y23.919
X33.511Y14.989
X33.511Y12.489
T12
X22.406Y65.14
T13
X3.0Y72.0
X3.0Y3.0
X47.0Y72.0
X47.0Y3.0
T5
G00X14.316Y72.04
M15
G01X14.316Y72.64
M16
G05
G00X14.676Y66.09
M15
G01X14.676Y66.69
M16
G05
G00X22.936Y66.09
M15
G01X22.936Y66.69
M16
G05
G00X23.296Y72.04
M15
G01X23.296Y72.64
M16
G05
T12
G00X15.356Y65.14
M15
G01X15.056Y65.14
M16
G05
T0
M30
